<svg xmlns="http://www.w3.org/2000/svg" viewBox="0 0 760 66" width="760" height="66" font-family="Inter, -apple-system, BlinkMacSystemFont, 'Segoe UI', Roboto, Helvetica, Arial, sans-serif" role="img" aria-label="orbis">
<rect x="24" y="1" width="712" height="64" rx="14" fill="#BFFF00" fill-opacity="0.16" stroke="#BFFF00" stroke-opacity="0.42" stroke-width="1"/>
<g transform="translate(56 17.0) scale(0.03313)">
<path d="M406.673 46.3989C430.086 36.2418 457.181 38.3796 478.797 52.3644L680.971 183.19C681.062 183.248 681.149 183.323 681.239 183.384C681.269 183.404 681.3 183.424 681.329 183.444C688 187.938 691.552 195.351 691.411 202.876V537.054C691.411 620.784 647.385 698.349 575.484 741.257L282.037 916.361C274.471 920.874 265.366 920.511 258.338 916.212L12.5121 776.066L10.5435 774.812C3.70019 769.936 0.265526 761.808 1.10227 753.784V400.293C1.10594 311.3 50.8064 229.754 129.9 188.962L402.035 48.6061L406.673 46.3989ZM227.079 311.316C182.214 335.402 154.211 382.211 154.209 433.134V804.104L270.045 870.158L551.996 701.913C610.044 667.273 645.596 604.652 645.596 537.054V214.867L583.448 174.659V498.516C583.447 564.489 548.133 625.428 490.893 658.229L384.437 719.229L384.093 719.392C383.61 719.659 383.12 719.907 382.616 720.137L382.349 720.287C382.28 720.317 382.207 720.333 382.14 720.362C381.593 720.598 381.037 720.809 380.469 721.003C380.376 721.035 380.28 721.061 380.186 721.092C379.641 721.27 379.091 721.432 378.531 721.57C378.386 721.605 378.242 721.641 378.097 721.674C377.592 721.788 377.08 721.878 376.561 721.958C376.332 721.993 376.106 722.034 375.875 722.061C375.455 722.113 375.034 722.153 374.608 722.181C374.27 722.203 373.933 722.219 373.594 722.226C373.416 722.229 373.235 722.255 373.058 722.255C372.922 722.255 372.789 722.228 372.654 722.226C372.23 722.219 371.808 722.197 371.387 722.167C371.026 722.141 370.669 722.104 370.313 722.061C370.089 722.034 369.864 722.006 369.641 721.973C369.159 721.9 368.682 721.82 368.21 721.719C367.964 721.666 367.723 721.602 367.479 721.539C367.047 721.431 366.619 721.315 366.196 721.182C366.011 721.124 365.828 721.066 365.645 721.003C365.176 720.843 364.713 720.67 364.258 720.481C363.98 720.366 363.711 720.235 363.438 720.108C363.128 719.965 362.815 719.833 362.512 719.676C362.143 719.485 361.784 719.276 361.423 719.064C361.199 718.931 360.973 718.802 360.753 718.662C360.443 718.463 360.145 718.248 359.843 718.036C359.536 717.817 359.23 717.597 358.934 717.364C358.722 717.199 358.513 717.031 358.306 716.857C357.986 716.586 357.673 716.308 357.367 716.021C357.176 715.841 356.987 715.658 356.801 715.47C356.481 715.148 356.176 714.812 355.877 714.471C355.696 714.267 355.527 714.056 355.354 713.844C355.102 713.537 354.86 713.225 354.623 712.904C354.437 712.649 354.249 712.394 354.072 712.129C353.847 711.796 353.623 711.461 353.415 711.115C353.34 710.989 353.25 710.87 353.177 710.742C353.105 710.617 353.051 710.479 352.983 710.354C352.734 709.9 352.5 709.439 352.282 708.967C352.187 708.763 352.086 708.561 351.999 708.356C351.837 707.979 351.692 707.594 351.552 707.208C351.411 706.825 351.268 706.446 351.148 706.06C351.086 705.853 351.042 705.641 350.984 705.433C350.657 704.248 350.415 703.054 350.283 701.854C350.278 701.8 350.273 701.742 350.269 701.689L350.223 701.078C350.194 700.679 350.157 700.282 350.15 699.885V589.655L281.947 630.057C274.867 634.251 266.07 634.326 258.92 630.251C251.777 626.175 247.364 618.58 247.362 610.357V471.089C247.364 425.026 271.687 382.383 311.328 358.921L425.762 291.183L428.492 289.81C435.014 287.044 442.52 287.438 448.776 291.002C455.923 295.079 460.333 302.67 460.333 310.899V450.09C460.333 496.138 436.044 538.774 396.427 562.244L395.816 562.586C395.82 562.627 395.842 562.665 395.845 562.707L395.965 565.048V659.812L468.119 618.469C511.11 593.832 537.631 548.065 537.632 498.516V145.011L537.275 144.771L227.079 311.316ZM453.906 90.8425C445.213 85.2195 434.313 84.3549 424.898 88.4414L423.033 89.3214L150.899 229.677C87.0451 262.61 46.9212 328.448 46.9182 400.293V742.941L108.394 777.989V433.134C108.395 365.335 145.676 303.028 205.409 270.958L493.368 116.375L453.906 90.8425ZM334.653 398.34C308.948 413.555 293.179 441.217 293.178 471.089V570.149L373.071 522.826L377.77 519.828C400.674 504.14 414.518 478.088 414.518 450.09V351.076L334.653 398.34Z" fill="#BFFF00"/>
<path d="M1332.5 780.728C1279.69 780.728 1233.53 769.78 1194.04 747.884C1154.97 725.559 1124.7 694.217 1103.23 653.86C1081.76 613.502 1071.03 566.276 1071.03 512.18C1071.03 457.654 1081.76 410.428 1103.23 370.499C1124.7 330.142 1154.97 299.015 1194.04 277.119C1233.53 254.794 1279.69 243.631 1332.5 243.631C1385.73 243.631 1431.89 254.794 1470.96 277.119C1510.45 299.015 1540.72 330.142 1561.76 370.499C1583.23 410.428 1593.96 457.654 1593.96 512.18C1593.96 566.276 1583.23 613.502 1561.76 653.86C1540.29 694.217 1509.81 725.559 1470.31 747.884C1431.24 769.78 1385.3 780.728 1332.5 780.728ZM1332.5 716.328C1390.88 716.328 1436.61 698.081 1469.67 661.588C1502.73 625.094 1519.26 575.292 1519.26 512.18C1519.26 448.638 1502.73 398.836 1469.67 362.771C1436.61 326.278 1390.88 308.031 1332.5 308.031C1274.54 308.031 1228.81 326.278 1195.32 362.771C1162.26 398.836 1145.74 448.638 1145.74 512.18C1145.74 575.721 1162.26 625.738 1195.32 662.232C1228.81 698.296 1274.54 716.328 1332.5 716.328ZM1704.68 773V461.304H1667.33V386.6H1744.61V458.728H1771.65C1782.39 435.114 1798.92 416.653 1821.24 403.344C1844 390.034 1870.61 383.38 1901.1 383.38H1932.65V445.204H1897.23C1858.59 445.204 1828.75 456.581 1807.72 479.336C1786.68 502.09 1776.16 532.788 1776.16 571.428V773H1704.68ZM2216.47 780.728C2185.55 780.728 2158.94 775.147 2136.61 763.984C2114.29 752.392 2096.68 735.648 2083.8 713.752H2056.75V773H1979.47V698.296H2016.83V232.039H2088.95V449.068H2091.53C2103.12 426.313 2120.3 408.925 2143.05 396.904C2165.81 384.882 2192.42 378.872 2222.91 378.872C2259.4 378.872 2290.74 387.029 2316.93 403.344C2343.55 419.658 2363.94 442.842 2378.11 472.896C2392.28 502.949 2399.36 538.584 2399.36 579.8C2399.36 621.016 2392.06 656.651 2377.47 686.704C2363.3 716.757 2342.69 739.941 2315.64 756.256C2288.59 772.571 2255.54 780.728 2216.47 780.728ZM2205.52 718.904C2244.16 718.904 2274 706.668 2295.03 682.196C2316.5 657.724 2327.23 623.592 2327.23 579.8C2327.23 536.008 2316.5 501.876 2295.03 477.404C2274 452.932 2244.16 440.696 2205.52 440.696C2170.31 440.696 2141.98 450.785 2120.51 470.964C2099.47 491.142 2088.95 517.976 2088.95 551.464V608.136C2088.95 641.624 2099.47 668.457 2120.51 688.636C2141.98 708.815 2170.31 718.904 2205.52 718.904ZM2485.44 773V386.6H2557.57V773H2485.44ZM2521.5 333.791C2509.48 333.791 2499.18 329.498 2490.59 320.911C2482 312.325 2477.71 302.021 2477.71 289.999C2477.71 277.978 2482 267.674 2490.59 259.087C2499.18 250.501 2509.48 246.207 2521.5 246.207C2533.52 246.207 2543.83 250.501 2552.41 259.087C2561 267.674 2565.29 277.978 2565.29 289.999C2565.29 302.021 2561 312.325 2552.41 320.911C2543.83 329.498 2533.52 333.791 2521.5 333.791ZM2815.77 780.728C2762.1 780.728 2719.81 769.565 2688.9 747.24C2657.99 724.915 2641.03 693.788 2638.03 653.86H2709.51C2712.52 677.473 2722.82 694.861 2740.42 706.024C2758.02 717.187 2784 722.768 2818.35 722.768C2878.45 722.768 2908.51 703.877 2908.51 666.096C2908.51 650.64 2903.78 638.833 2894.34 630.676C2885.32 622.089 2869.87 615.864 2847.97 612L2763.61 596.544C2691.91 583.234 2656.06 549.102 2656.06 494.148C2656.06 458.513 2669.58 430.392 2696.63 409.784C2723.68 389.176 2760.6 378.872 2807.4 378.872C2855.91 378.872 2894.34 389.39 2922.67 410.428C2951.44 431.465 2967.75 461.089 2971.62 499.3H2901.42C2897.13 477.833 2887.04 461.948 2871.15 451.644C2855.7 441.34 2833.8 436.188 2805.47 436.188C2779.28 436.188 2758.88 440.696 2744.29 449.712C2730.12 458.728 2723.03 471.822 2723.03 488.996C2723.03 502.305 2727.54 512.824 2736.56 520.552C2746 527.85 2761.03 533.432 2781.64 537.296L2866 553.396C2903.78 560.265 2931.48 572.501 2949.08 590.104C2966.68 607.706 2975.48 631.32 2975.48 660.944C2975.48 698.725 2961.74 728.135 2934.27 749.172C2906.79 770.209 2867.29 780.728 2815.77 780.728Z" fill="#FFFFFF"/>
</g>
<text x="712" y="30" text-anchor="end" font-size="12" font-weight="700" letter-spacing="1.5" fill="#BFFF00">SECRETS</text>
<text x="712" y="49" text-anchor="end" font-size="12.5" font-weight="500" fill="#9AA2AB">threshold-secured secrets</text>
</svg>
