<svg xmlns="http://www.w3.org/2000/svg" viewBox="0 0 760 66" width="760" height="66" font-family="Inter, -apple-system, BlinkMacSystemFont, 'Segoe UI', Roboto, Helvetica, Arial, sans-serif" role="img" aria-label="lensvm">
<rect x="24" y="1" width="712" height="64" rx="14" fill="#FFA011" fill-opacity="0.10" stroke="#FFA011" stroke-opacity="0.32" stroke-width="1"/>
<g transform="translate(56 17.0) scale(0.03313)">
<path d="M390.672 29.7087C391.173 29.7161 391.676 29.7276 392.178 29.7684C392.253 29.7745 392.326 29.7913 392.401 29.7982C392.985 29.8513 393.566 29.9232 394.147 30.0219C394.312 30.0498 394.475 30.0799 394.639 30.1114C394.739 30.1305 394.839 30.1506 394.938 30.1711C395.42 30.271 395.903 30.3817 396.384 30.5141L396.801 30.6184C396.958 30.6647 397.108 30.7331 397.264 30.7824C397.583 30.8848 397.901 30.9935 398.218 31.1106C398.571 31.2404 398.918 31.3819 399.263 31.5282C399.399 31.5868 399.544 31.6308 399.68 31.6922L399.993 31.8563C400.391 32.0422 400.785 32.2302 401.172 32.4379C401.242 32.4759 401.309 32.5185 401.38 32.5573L401.767 32.7661L734.961 225.141C742.047 229.234 746.415 236.793 746.415 244.977V283.172C746.419 283.376 746.416 283.579 746.415 283.783V559.214C746.412 636.847 706.244 708.75 640.6 749.533L634.172 753.38L332.835 926.948C325.751 931.029 317.037 931.019 309.957 926.934L189.766 857.569C189.679 857.522 189.598 857.467 189.512 857.419L11.4539 754.678C4.36716 750.585 0 743.025 0 734.841V382.648C0 301.606 43.7571 226.871 114.436 187.214L143.472 170.929C143.522 170.901 143.571 170.867 143.622 170.84C144.981 170.09 146.386 169.499 147.812 169.05C148.083 168.965 148.359 168.902 148.632 168.826C149.089 168.7 149.544 168.58 150.005 168.483C150.178 168.447 150.354 168.425 150.526 168.393C151.123 168.283 151.717 168.187 152.316 168.125C152.371 168.12 152.426 168.115 152.481 168.111C153.102 168.051 153.724 168.015 154.344 168.005H154.688C154.912 168.005 155.135 168.03 155.36 168.036C155.842 168.051 156.325 168.065 156.806 168.111C157.146 168.141 157.482 168.198 157.82 168.245C158.208 168.299 158.599 168.335 158.984 168.409C159.411 168.49 159.831 168.603 160.251 168.706C160.459 168.76 160.67 168.798 160.877 168.856L161.504 169.035C161.823 169.134 162.13 169.265 162.443 169.378C162.692 169.467 162.944 169.548 163.188 169.647C163.651 169.832 164.098 170.044 164.546 170.258C164.744 170.353 164.946 170.441 165.143 170.542C165.554 170.753 165.955 170.977 166.351 171.213C166.621 171.373 166.891 171.533 167.156 171.704C167.498 171.927 167.826 172.166 168.154 172.405C168.432 172.608 168.706 172.816 168.976 173.031C169.275 173.273 169.567 173.523 169.856 173.778C170.115 174.009 170.38 174.235 170.632 174.479C170.896 174.736 171.139 175.014 171.392 175.284C171.658 175.568 171.93 175.849 172.182 176.148C172.507 176.533 172.808 176.936 173.107 177.343C173.216 177.489 173.344 177.624 173.449 177.775C175.803 181.129 177.253 185.141 177.521 189.482C177.547 189.905 177.579 190.327 177.58 190.75C177.582 190.803 177.596 190.86 177.596 190.913V797.659L200.801 811.052L700.599 528.835V322.56L399.918 489.328C392.81 493.268 384.141 493.151 377.145 489.015C370.148 484.878 365.871 477.337 365.9 469.209L367.257 91.6913L291.046 134.211L292.866 619.735L495.696 508.059C506.777 501.96 520.704 506.004 526.806 517.083C532.907 528.165 528.88 542.106 517.799 548.207L281.144 678.512C278.172 680.151 274.803 681.13 271.211 681.301C270.997 681.311 270.783 681.327 270.569 681.33C270.446 681.333 270.321 681.36 270.197 681.36C269.896 681.362 269.6 681.325 269.302 681.316C269.029 681.305 268.754 681.305 268.482 681.285C267.949 681.249 267.423 681.18 266.901 681.107C266.776 681.088 266.651 681.081 266.527 681.062C265.948 680.971 265.377 680.853 264.812 680.719C264.708 680.694 264.604 680.67 264.499 680.644C263.897 680.493 263.306 680.32 262.724 680.122C262.685 680.108 262.645 680.091 262.605 680.077C262.074 679.893 261.553 679.688 261.04 679.467C260.844 679.383 260.65 679.302 260.458 679.213C260.027 679.011 259.606 678.798 259.19 678.572C258.99 678.463 258.79 678.358 258.593 678.243C258.24 678.037 257.904 677.81 257.564 677.587C257.294 677.411 257.022 677.238 256.759 677.051C256.481 676.85 256.206 676.65 255.939 676.438C255.644 676.208 255.357 675.969 255.073 675.723C254.835 675.514 254.603 675.299 254.374 675.082C254.094 674.819 253.819 674.554 253.552 674.276C253.355 674.069 253.16 673.863 252.972 673.649C252.689 673.332 252.417 673.002 252.15 672.666C251.991 672.464 251.84 672.26 251.689 672.054C251.412 671.679 251.139 671.301 250.882 670.905C250.759 670.714 250.644 670.519 250.525 670.323C250.357 670.047 250.175 669.775 250.018 669.488C249.962 669.386 249.908 669.279 249.855 669.175C249.703 668.892 249.575 668.599 249.436 668.31C247.886 665.071 247.152 661.638 247.184 658.243L245.186 120.893L245.29 118.551C245.649 114.875 246.889 111.459 248.78 108.499C248.847 108.393 248.92 108.291 248.989 108.186C249.684 107.137 250.447 106.137 251.301 105.218C251.57 104.928 251.864 104.661 252.15 104.383C252.365 104.175 252.57 103.956 252.791 103.757C253.156 103.43 253.537 103.122 253.926 102.817C254.07 102.703 254.21 102.584 254.358 102.474C254.781 102.157 255.22 101.855 255.67 101.564C255.843 101.453 256.017 101.343 256.192 101.236C256.438 101.086 256.684 100.931 256.938 100.789L378.681 32.8704C379.104 32.6218 379.527 32.375 379.964 32.1546C380.164 32.0531 380.371 31.9671 380.575 31.8712C380.93 31.7049 381.286 31.5417 381.648 31.3939C382.016 31.2435 382.39 31.108 382.768 30.9764C383.035 30.8832 383.302 30.7911 383.572 30.7079C384.009 30.5735 384.452 30.4585 384.9 30.3499C385.144 30.2907 385.385 30.2223 385.631 30.1711C386.048 30.0842 386.473 30.026 386.899 29.9622C387.132 29.9269 387.365 29.886 387.6 29.8579C387.714 29.8441 387.827 29.825 387.942 29.8131C388.204 29.7861 388.469 29.7716 388.733 29.7534C389.09 29.7284 389.448 29.7169 389.806 29.7087C389.892 29.7068 389.976 29.6948 390.06 29.6938H390.404C390.492 29.6942 390.582 29.7073 390.672 29.7087ZM246.886 837.644L321.396 880.656L611.309 713.679L616.425 710.621C662.07 682.263 692.219 634.986 699.093 582.287L246.886 837.644ZM131.78 230.138C78.5404 262.351 45.8157 320.138 45.8157 382.648V721.612L131.78 771.217V230.138ZM411.85 430.298L700.599 270.167V258.191L413.073 92.1833L411.85 430.298Z" fill="#FFA011"/>
<path d="M1127.02 773V251.359H1201.08V709.888H1485.08V773H1127.02ZM1713.86 780.728C1673.51 780.728 1638.52 772.571 1608.89 756.256C1579.27 739.512 1556.3 715.899 1539.98 685.416C1524.1 654.933 1516.16 619.298 1516.16 578.512C1516.16 537.725 1524.1 502.52 1539.98 472.896C1556.3 442.842 1579.05 419.658 1608.25 403.344C1637.44 387.029 1671.58 378.872 1710.64 378.872C1748 378.872 1780.2 386.385 1807.24 401.412C1834.72 416.438 1855.97 437.69 1871 465.168C1886.03 492.645 1893.54 525.274 1893.54 563.056V592.036H1585.71C1587.85 632.393 1600.09 663.949 1622.42 686.704C1645.17 709.029 1675.44 720.192 1713.22 720.192C1739.41 720.192 1761.52 714.825 1779.55 704.092C1797.58 692.929 1810.04 676.615 1816.9 655.148H1890.32C1880.88 695.076 1860.48 725.988 1829.14 747.884C1798.23 769.78 1759.8 780.728 1713.86 780.728ZM1588.28 539.228H1823.99C1820.55 507.457 1808.75 482.77 1788.57 465.168C1768.82 447.565 1742.63 438.764 1710 438.764C1677.8 438.764 1650.97 447.565 1629.5 465.168C1608.03 482.77 1594.29 507.457 1588.28 539.228ZM1992.52 773V461.304H1955.16V386.6H2032.44V445.848H2059.49C2072.8 424.381 2091.05 408.066 2114.23 396.904C2137.42 385.312 2164.68 379.516 2196.02 379.516C2245.82 379.516 2285.11 393.898 2313.87 422.664C2342.64 451 2357.02 488.996 2357.02 536.652V773H2284.89V548.888C2284.89 514.112 2275.45 487.708 2256.56 469.676C2238.09 451.644 2210.83 442.628 2174.77 442.628C2139.13 442.628 2111.87 451.644 2092.98 469.676C2074.09 487.708 2064.64 514.112 2064.64 548.888V773H1992.52ZM2608.82 780.728C2555.16 780.728 2512.87 769.565 2481.96 747.24C2451.04 724.915 2434.09 693.788 2431.08 653.86H2502.56C2505.57 677.473 2515.87 694.861 2533.48 706.024C2551.08 717.187 2577.05 722.768 2611.4 722.768C2671.51 722.768 2701.56 703.877 2701.56 666.096C2701.56 650.64 2696.84 638.833 2687.39 630.676C2678.38 622.089 2662.92 615.864 2641.02 612L2556.66 596.544C2484.96 583.234 2449.11 549.102 2449.11 494.148C2449.11 458.513 2462.64 430.392 2489.68 409.784C2516.73 389.176 2553.65 378.872 2600.45 378.872C2648.97 378.872 2687.39 389.39 2715.73 410.428C2744.49 431.465 2760.81 461.089 2764.67 499.3H2694.48C2690.18 477.833 2680.09 461.948 2664.21 451.644C2648.75 441.34 2626.86 436.188 2598.52 436.188C2572.33 436.188 2551.94 440.696 2537.34 449.712C2523.17 458.728 2516.09 471.822 2516.09 488.996C2516.09 502.305 2520.6 512.824 2529.61 520.552C2539.06 527.85 2554.08 533.432 2574.69 537.296L2659.06 553.396C2696.84 560.265 2724.53 572.501 2742.13 590.104C2759.74 607.706 2768.54 631.32 2768.54 660.944C2768.54 698.725 2754.8 728.135 2727.32 749.172C2699.84 770.209 2660.34 780.728 2608.82 780.728ZM2956.86 773L2741.12 251.359H2820.97L3001.29 695.72H3004.51L3184.19 251.359H3261.47L3045.73 773H2956.86ZM3332.97 773V251.359H3440.52L3620.84 671.892H3623.42L3804.38 251.359H3911.29V773H3837.23V338.299H3834.65L3649.82 773H3589.93L3404.46 337.655H3401.88V773H3332.97Z" fill="#161616"/>
</g>
<text x="712" y="30" text-anchor="end" font-size="12" font-weight="700" letter-spacing="1.5" fill="#B86E00">TRANSFORMATION</text>
<text x="712" y="49" text-anchor="end" font-size="12.5" font-weight="500" fill="#5C636B">bidirectional data lenses</text>
</svg>
