<svg xmlns="http://www.w3.org/2000/svg" viewBox="0 0 760 66" width="760" height="66" font-family="Inter, -apple-system, BlinkMacSystemFont, 'Segoe UI', Roboto, Helvetica, Arial, sans-serif" role="img" aria-label="sourcehub">
<rect x="24" y="1" width="712" height="64" rx="14" fill="#0EE09E" fill-opacity="0.10" stroke="#0EE09E" stroke-opacity="0.32" stroke-width="1"/>
<g transform="translate(56 17.0) scale(0.03313)">
<path d="M362.699 32.6021C363.219 32.614 363.735 32.6446 364.251 32.6916L365.474 32.7811C368.445 33.1739 371.319 34.151 373.93 35.6594L486.784 100.863L486.799 100.878L599.921 166.32L712.776 231.525L715.296 233.21C720.878 237.51 724.213 244.201 724.215 251.36V587.402C724.213 667.809 682.667 742.297 614.732 784.625L608.079 788.622L599.907 793.35C599.341 793.677 598.736 793.924 598.146 794.199L489.171 857.002C488.334 857.657 487.449 858.266 486.515 858.807L373.661 924.01C370.179 926.022 366.229 927.081 362.208 927.083H361.939C358.915 927.083 355.929 926.49 353.154 925.337L350.456 923.996L238.154 858.956L237.9 858.837L124.777 793.632C124.305 793.361 123.871 793.028 123.42 792.722L11.6395 728.145C4.55499 724.052 0.185547 716.492 0.185547 708.31V372.283C0.187532 289.274 44.4707 212.567 116.351 171.048L350.738 35.6594L350.963 35.5252C351.326 35.3201 351.705 35.144 352.081 34.9584L352.826 34.5856C352.93 34.5391 353.035 34.4965 353.139 34.4514C353.354 34.3587 353.577 34.2842 353.796 34.1979C354.248 34.0191 354.695 33.8392 355.153 33.6909C355.404 33.6096 355.659 33.5397 355.914 33.4671C356.384 33.3324 356.856 33.2124 357.331 33.1092C357.563 33.0589 357.797 33.0181 358.032 32.9749C358.562 32.8767 359.094 32.7962 359.628 32.7364C359.785 32.7185 359.946 32.7061 360.105 32.6916C360.706 32.6368 361.308 32.609 361.91 32.6021C362.009 32.6008 362.108 32.5872 362.208 32.5872H362.476L362.699 32.6021ZM225.999 291.061C184.464 315.032 158.871 359.345 158.87 407.3V760.39L260.643 819.046L260.822 819.15L362.073 877.778L460.953 820.658C461.791 820.002 462.686 819.407 463.622 818.868L576.746 753.663L578.505 752.783L585.156 748.95L590.495 745.744C645.04 711.763 678.397 651.958 678.399 587.402V264.574L611.331 225.827L611.152 552.489C611.115 616.748 576.818 676.118 521.176 708.265L378.971 790.396C372.372 797.296 362.02 799.489 353.11 795.497L351.022 794.423L237.9 729.218C236.161 728.217 234.547 726.999 233.128 725.581L232.873 725.312L231.292 723.566C227.111 718.435 225.498 711.912 226.431 705.7V382.036C226.433 369.386 236.688 359.128 249.339 359.128C261.989 359.128 272.244 369.386 272.247 382.036V500.483L452.139 396.384V264.574L361.939 212.583L225.999 291.061ZM139.259 210.72C81.5494 244.053 46.004 305.64 46.001 372.283V695.081L113.054 733.812V407.3C113.055 342.972 147.387 283.527 203.105 251.376L350.5 166.32L353.229 164.979C359.74 162.297 367.195 162.734 373.393 166.306L483.786 229.929C491.24 233.008 496.69 239.905 497.746 248.184C497.766 248.327 497.788 248.472 497.805 248.616C497.822 248.775 497.836 248.934 497.85 249.094C497.917 249.761 497.947 250.433 497.955 251.107V577.648C497.953 590.299 487.698 600.556 475.047 600.556C462.396 600.556 452.139 590.299 452.139 577.648V449.298L272.247 553.399V696.139L361.507 747.594L498.253 668.594C539.733 644.629 565.307 600.378 565.336 552.474L565.53 199.355L463.876 140.52L362.342 81.8629L139.259 210.72Z" fill="#0EE09E"/>
<path d="M1304.71 780.728C1237.73 780.728 1184.28 766.131 1144.35 736.936C1104.86 707.741 1083.17 667.169 1079.31 615.22H1157.23C1158.95 648.279 1172.69 673.824 1198.45 691.856C1224.21 709.459 1260.27 718.26 1306.64 718.26C1347.86 718.26 1379.42 710.961 1401.31 696.364C1423.21 681.767 1434.16 660.085 1434.16 631.32C1434.16 608.994 1426.43 590.748 1410.97 576.58C1395.94 562.412 1373.4 552.537 1343.35 546.956L1243.53 526.992C1198.45 517.976 1164.1 501.876 1140.49 478.692C1116.88 455.078 1105.07 425.669 1105.07 390.464C1105.07 345.383 1122.03 309.749 1155.95 283.559C1189.86 256.941 1236.02 243.631 1294.41 243.631C1353.23 243.631 1401.1 257.585 1438.02 285.491C1475.37 312.969 1496.84 351.394 1502.42 400.768H1424.5C1411.62 337.226 1366.75 305.455 1289.9 305.455C1254.69 305.455 1227 312.325 1206.82 326.063C1187.07 339.802 1177.2 359.337 1177.2 384.668C1177.2 425.454 1206.18 451.644 1264.14 463.236L1368.47 483.844C1413.98 492.86 1448.32 509.389 1471.51 533.432C1494.69 557.045 1506.28 587.742 1506.28 625.524C1506.28 674.468 1488.47 712.679 1452.83 740.156C1417.2 767.204 1367.82 780.728 1304.71 780.728ZM1772.94 780.728C1733.01 780.728 1698.02 772.571 1667.97 756.256C1638.34 739.512 1615.37 716.113 1599.06 686.06C1582.74 656.007 1574.59 620.586 1574.59 579.8C1574.59 539.013 1582.74 503.593 1599.06 473.54C1615.37 443.486 1638.34 420.302 1667.97 403.988C1698.02 387.244 1733.01 378.872 1772.94 378.872C1814.16 378.872 1849.36 387.029 1878.56 403.344C1908.18 419.658 1930.93 442.842 1946.82 472.896C1963.13 502.949 1971.29 538.584 1971.29 579.8C1971.29 620.586 1963.13 656.221 1946.82 686.704C1930.93 716.757 1908.18 739.941 1878.56 756.256C1848.93 772.571 1813.73 780.728 1772.94 780.728ZM1772.94 717.616C1812.87 717.616 1843.78 705.595 1865.68 681.552C1888 657.08 1899.16 623.162 1899.16 579.8C1899.16 536.008 1888 502.09 1865.68 478.048C1843.78 454.005 1812.87 441.984 1772.94 441.984C1733.44 441.984 1702.53 454.22 1680.2 478.692C1657.88 502.734 1646.72 536.437 1646.72 579.8C1646.72 623.162 1657.88 657.08 1680.2 681.552C1702.53 705.595 1733.44 717.616 1772.94 717.616ZM2210.96 780.084C2161.16 780.084 2122.09 766.345 2093.75 738.868C2065.42 710.961 2051.25 673.609 2051.25 626.812V386.6H2123.38V611.356C2123.38 646.132 2132.39 672.536 2150.42 690.568C2168.46 708.171 2194.65 716.972 2228.99 716.972C2265.49 716.972 2293.61 707.741 2313.36 689.28C2333.54 670.389 2343.63 644.2 2343.63 610.712V386.6H2415.75V698.296H2453.11V773H2375.83V713.752H2348.78C2335.04 735.219 2316.58 751.748 2293.39 763.34C2270.21 774.503 2242.73 780.084 2210.96 780.084ZM2547.82 773V461.304H2510.47V386.6H2587.75V458.728H2614.8C2625.53 435.114 2642.06 416.653 2664.39 403.344C2687.14 390.034 2713.76 383.38 2744.24 383.38H2775.8V445.204H2740.38C2701.74 445.204 2671.9 456.581 2650.86 479.336C2629.83 502.09 2619.31 532.788 2619.31 571.428V773H2547.82ZM2996.2 780.728C2957.13 780.728 2923 772.571 2893.8 756.256C2864.61 739.512 2841.85 716.113 2825.54 686.06C2809.65 656.007 2801.71 620.586 2801.71 579.8C2801.71 539.013 2809.65 503.593 2825.54 473.54C2841.42 443.486 2863.96 420.302 2893.16 403.988C2922.35 387.244 2956.7 378.872 2996.2 378.872C3043.43 378.872 3082.71 390.678 3114.05 414.292C3145.82 437.476 3166.64 470.964 3176.52 514.756H3103.75C3096.45 489.854 3083.78 471.608 3065.75 460.016C3048.15 447.994 3024.96 441.984 2996.2 441.984C2957.99 441.984 2927.94 454.005 2906.04 478.048C2884.57 502.09 2873.84 536.008 2873.84 579.8C2873.84 623.162 2884.57 657.08 2906.04 681.552C2927.94 705.595 2957.99 717.616 2996.2 717.616C3055.88 717.616 3092.58 691.212 3106.32 638.404H3179.1C3169.65 684.343 3149.04 719.548 3117.27 744.02C3085.5 768.492 3045.14 780.728 2996.2 780.728ZM3418.27 780.728C3377.91 780.728 3342.92 772.571 3313.3 756.256C3283.68 739.512 3260.71 715.899 3244.39 685.416C3228.51 654.933 3220.56 619.298 3220.56 578.512C3220.56 537.725 3228.51 502.52 3244.39 472.896C3260.71 442.842 3283.46 419.658 3312.66 403.344C3341.85 387.029 3375.98 378.872 3415.05 378.872C3452.4 378.872 3484.6 386.385 3511.65 401.412C3539.13 416.438 3560.38 437.69 3575.41 465.168C3590.43 492.645 3597.95 525.274 3597.95 563.056V592.036H3290.12C3292.26 632.393 3304.5 663.949 3326.82 686.704C3349.58 709.029 3379.85 720.192 3417.63 720.192C3443.82 720.192 3465.93 714.825 3483.96 704.092C3501.99 692.929 3514.44 676.615 3521.31 655.148H3594.73C3585.28 695.076 3564.89 725.988 3533.55 747.884C3502.64 769.78 3464.21 780.728 3418.27 780.728ZM3292.69 539.228H3528.4C3524.96 507.457 3513.15 482.77 3492.98 465.168C3473.23 447.565 3447.04 438.764 3414.41 438.764C3382.21 438.764 3355.37 447.565 3333.91 465.168C3312.44 482.77 3298.7 507.457 3292.69 539.228ZM3691.77 773V251.359H3765.83V470.964H4065.93V251.359H4139.99V773H4065.93V534.076H3765.83V773H3691.77ZM4413.14 780.084C4363.34 780.084 4324.27 766.345 4295.93 738.868C4267.6 710.961 4253.43 673.609 4253.43 626.812V386.6H4325.56V611.356C4325.56 646.132 4334.57 672.536 4352.61 690.568C4370.64 708.171 4396.83 716.972 4431.17 716.972C4467.67 716.972 4495.79 707.741 4515.54 689.28C4535.72 670.389 4545.81 644.2 4545.81 610.712V386.6H4617.93V698.296H4655.29V773H4578.01V713.752H4550.96C4537.22 735.219 4518.76 751.748 4495.57 763.34C4472.39 774.503 4444.91 780.084 4413.14 780.084ZM4956.9 780.728C4925.99 780.728 4899.37 775.147 4877.04 763.984C4854.72 752.392 4837.12 735.648 4824.24 713.752H4797.19V773H4719.91V698.296H4757.26V232.039H4829.39V449.068H4831.96C4843.56 426.313 4860.73 408.925 4883.48 396.904C4906.24 384.882 4932.86 378.872 4963.34 378.872C4999.83 378.872 5031.17 387.029 5057.36 403.344C5083.98 419.658 5104.38 442.842 5118.54 472.896C5132.71 502.949 5139.8 538.584 5139.8 579.8C5139.8 621.016 5132.5 656.651 5117.9 686.704C5103.73 716.757 5083.12 739.941 5056.08 756.256C5029.03 772.571 4995.97 780.728 4956.9 780.728ZM4945.95 718.904C4984.59 718.904 5014.43 706.668 5035.47 682.196C5056.93 657.724 5067.67 623.592 5067.67 579.8C5067.67 536.008 5056.93 501.876 5035.47 477.404C5014.43 452.932 4984.59 440.696 4945.95 440.696C4910.75 440.696 4882.41 450.785 4860.94 470.964C4839.91 491.142 4829.39 517.976 4829.39 551.464V608.136C4829.39 641.624 4839.91 668.457 4860.94 688.636C4882.41 708.815 4910.75 718.904 4945.95 718.904Z" fill="#161616"/>
</g>
<text x="712" y="30" text-anchor="end" font-size="12" font-weight="700" letter-spacing="1.5" fill="#08906A">TRUST</text>
<text x="712" y="49" text-anchor="end" font-size="12.5" font-weight="500" fill="#5C636B">access control and policy</text>
</svg>
